<?xml version="1.0" encoding="UTF-8" standalone="no"?>
<!DOCTYPE svg PUBLIC "-//W3C//DTD SVG 1.1//EN"
 "http://www.w3.org/Graphics/SVG/1.1/DTD/svg11.dtd">
<!-- Generated by graphviz version 2.38.0 (20140413.2041)
 -->
<!-- Title: Ogre::ScriptTranslator Pages: 1 -->
<svg width="662pt" height="634pt"
 viewBox="0.00 0.00 662.00 634.00" xmlns="http://www.w3.org/2000/svg" xmlns:xlink="http://www.w3.org/1999/xlink">
<g id="graph0" class="graph" transform="scale(1 1) rotate(0) translate(4 630)">
<title>Ogre::ScriptTranslator</title>
<!-- Node1 -->
<g id="node1" class="node"><title>Node1</title>
<polygon fill="#bfbfbf" stroke="black" points="143,-297.5 143,-316.5 256,-316.5 256,-297.5 143,-297.5"/>
<text text-anchor="middle" x="199.5" y="-304.5" font-family="Helvetica,sans-Serif" font-size="10.00">Ogre::ScriptTranslator</text>
</g>
<!-- Node3 -->
<g id="node3" class="node"><title>Node3</title>
<g id="a_node3"><a xlink:href="class_ogre_1_1_compositor_pass_translator.html" target="_top" xlink:title="Ogre::CompositorPassTranslator">
<polygon fill="none" stroke="black" points="294.5,-606.5 294.5,-625.5 454.5,-625.5 454.5,-606.5 294.5,-606.5"/>
<text text-anchor="middle" x="374.5" y="-613.5" font-family="Helvetica,sans-Serif" font-size="10.00">Ogre::CompositorPassTranslator</text>
</a>
</g>
</g>
<!-- Node1&#45;&gt;Node3 -->
<g id="edge2" class="edge"><title>Node1&#45;&gt;Node3</title>
<path fill="none" stroke="midnightblue" d="M200.543,-326.99C201.793,-379.386 212.703,-521.769 292,-596 296.574,-600.281 301.91,-603.689 307.624,-606.395"/>
<polygon fill="midnightblue" stroke="midnightblue" points="204.039,-326.664 200.4,-316.714 197.04,-326.762 204.039,-326.664"/>
</g>
<!-- Node4 -->
<g id="node4" class="node"><title>Node4</title>
<g id="a_node4"><a xlink:href="class_ogre_1_1_compositor_shadow_map_target_translator.html" target="_top" xlink:title="Ogre::CompositorShadowMap\lTargetTranslator">
<polygon fill="none" stroke="black" points="300.5,-557 300.5,-587 448.5,-587 448.5,-557 300.5,-557"/>
<text text-anchor="start" x="308.5" y="-575" font-family="Helvetica,sans-Serif" font-size="10.00">Ogre::CompositorShadowMap</text>
<text text-anchor="middle" x="374.5" y="-564" font-family="Helvetica,sans-Serif" font-size="10.00">TargetTranslator</text>
</a>
</g>
</g>
<!-- Node1&#45;&gt;Node4 -->
<g id="edge3" class="edge"><title>Node1&#45;&gt;Node4</title>
<path fill="none" stroke="midnightblue" d="M202.294,-327.016C207.475,-372.771 226.557,-485.777 292,-547 296.107,-550.842 300.79,-554.095 305.789,-556.848"/>
<polygon fill="midnightblue" stroke="midnightblue" points="205.759,-326.495 201.257,-316.904 198.796,-327.209 205.759,-326.495"/>
</g>
<!-- Node5 -->
<g id="node5" class="node"><title>Node5</title>
<g id="a_node5"><a xlink:href="class_ogre_1_1_compositor_target_translator.html" target="_top" xlink:title="Ogre::CompositorTargetTranslator">
<polygon fill="none" stroke="black" points="292,-518.5 292,-537.5 457,-537.5 457,-518.5 292,-518.5"/>
<text text-anchor="middle" x="374.5" y="-525.5" font-family="Helvetica,sans-Serif" font-size="10.00">Ogre::CompositorTargetTranslator</text>
</a>
</g>
</g>
<!-- Node1&#45;&gt;Node5 -->
<g id="edge4" class="edge"><title>Node1&#45;&gt;Node5</title>
<path fill="none" stroke="midnightblue" d="M203.628,-326.72C211.122,-367.203 233.989,-459.914 292,-508 297.16,-512.277 303.096,-515.663 309.365,-518.339"/>
<polygon fill="midnightblue" stroke="midnightblue" points="207.06,-326.024 201.906,-316.767 200.162,-327.218 207.06,-326.024"/>
</g>
<!-- Node6 -->
<g id="node6" class="node"><title>Node6</title>
<g id="a_node6"><a xlink:href="class_ogre_1_1_compositor_texture_base_translator.html" target="_top" xlink:title="Ogre::CompositorTextureBase\lTranslator">
<polygon fill="none" stroke="black" points="300,-469 300,-499 449,-499 449,-469 300,-469"/>
<text text-anchor="start" x="308" y="-487" font-family="Helvetica,sans-Serif" font-size="10.00">Ogre::CompositorTextureBase</text>
<text text-anchor="middle" x="374.5" y="-476" font-family="Helvetica,sans-Serif" font-size="10.00">Translator</text>
</a>
</g>
</g>
<!-- Node1&#45;&gt;Node6 -->
<g id="edge5" class="edge"><title>Node1&#45;&gt;Node6</title>
<path fill="none" stroke="midnightblue" d="M206.99,-326.51C218.748,-358.865 246.644,-423.56 292,-459 296.898,-462.827 302.383,-466.072 308.129,-468.821"/>
<polygon fill="midnightblue" stroke="midnightblue" points="210.223,-325.152 203.62,-316.867 203.615,-327.462 210.223,-325.152"/>
</g>
<!-- Node10 -->
<g id="node10" class="node"><title>Node10</title>
<g id="a_node10"><a xlink:href="class_ogre_1_1_gpu_program_translator.html" target="_top" xlink:title="Ogre::GpuProgramTranslator">
<polygon fill="none" stroke="black" points="303.5,-430.5 303.5,-449.5 445.5,-449.5 445.5,-430.5 303.5,-430.5"/>
<text text-anchor="middle" x="374.5" y="-437.5" font-family="Helvetica,sans-Serif" font-size="10.00">Ogre::GpuProgramTranslator</text>
</a>
</g>
</g>
<!-- Node1&#45;&gt;Node10 -->
<g id="edge9" class="edge"><title>Node1&#45;&gt;Node10</title>
<path fill="none" stroke="midnightblue" d="M210.293,-325.839C224.649,-351.507 253.888,-397.013 292,-421 298.148,-424.869 305.003,-427.952 312.055,-430.408"/>
<polygon fill="midnightblue" stroke="midnightblue" points="213.218,-323.889 205.377,-316.762 207.062,-327.222 213.218,-323.889"/>
</g>
<!-- Node11 -->
<g id="node11" class="node"><title>Node11</title>
<g id="a_node11"><a xlink:href="class_ogre_1_1_hlms_translator.html" target="_top" xlink:title="Ogre::HlmsTranslator">
<polygon fill="none" stroke="black" points="319.5,-392.5 319.5,-411.5 429.5,-411.5 429.5,-392.5 319.5,-392.5"/>
<text text-anchor="middle" x="374.5" y="-399.5" font-family="Helvetica,sans-Serif" font-size="10.00">Ogre::HlmsTranslator</text>
</a>
</g>
</g>
<!-- Node1&#45;&gt;Node11 -->
<g id="edge10" class="edge"><title>Node1&#45;&gt;Node11</title>
<path fill="none" stroke="midnightblue" d="M216.008,-323.863C232.992,-341.298 261.849,-368.021 292,-383 300.457,-387.202 309.874,-390.495 319.218,-393.069"/>
<polygon fill="midnightblue" stroke="midnightblue" points="218.508,-321.413 209.079,-316.582 213.437,-326.239 218.508,-321.413"/>
</g>
<!-- Node12 -->
<g id="node12" class="node"><title>Node12</title>
<g id="a_node12"><a xlink:href="class_ogre_1_1_material_translator.html" target="_top" xlink:title="Ogre::MaterialTranslator">
<polygon fill="none" stroke="black" points="313.5,-354.5 313.5,-373.5 435.5,-373.5 435.5,-354.5 313.5,-354.5"/>
<text text-anchor="middle" x="374.5" y="-361.5" font-family="Helvetica,sans-Serif" font-size="10.00">Ogre::MaterialTranslator</text>
</a>
</g>
</g>
<!-- Node1&#45;&gt;Node12 -->
<g id="edge11" class="edge"><title>Node1&#45;&gt;Node12</title>
<path fill="none" stroke="midnightblue" d="M230.08,-320.742C247.775,-328.593 270.862,-338.198 292,-345 303.064,-348.56 315.172,-351.751 326.591,-354.455"/>
<polygon fill="midnightblue" stroke="midnightblue" points="231.406,-317.501 220.851,-316.589 228.534,-323.884 231.406,-317.501"/>
</g>
<!-- Node13 -->
<g id="node13" class="node"><title>Node13</title>
<g id="a_node13"><a xlink:href="class_ogre_1_1_particle_affector_translator.html" target="_top" xlink:title="Ogre::ParticleAffectorTranslator">
<polygon fill="none" stroke="black" points="297,-316.5 297,-335.5 452,-335.5 452,-316.5 297,-316.5"/>
<text text-anchor="middle" x="374.5" y="-323.5" font-family="Helvetica,sans-Serif" font-size="10.00">Ogre::ParticleAffectorTranslator</text>
</a>
</g>
</g>
<!-- Node1&#45;&gt;Node13 -->
<g id="edge12" class="edge"><title>Node1&#45;&gt;Node13</title>
<path fill="none" stroke="midnightblue" d="M266.386,-314.236C276.326,-315.328 286.652,-316.462 296.795,-317.576"/>
<polygon fill="midnightblue" stroke="midnightblue" points="266.513,-310.729 256.191,-313.116 265.749,-317.687 266.513,-310.729"/>
</g>
<!-- Node14 -->
<g id="node14" class="node"><title>Node14</title>
<g id="a_node14"><a xlink:href="class_ogre_1_1_particle_emitter_translator.html" target="_top" xlink:title="Ogre::ParticleEmitterTranslator">
<polygon fill="none" stroke="black" points="298.5,-278.5 298.5,-297.5 450.5,-297.5 450.5,-278.5 298.5,-278.5"/>
<text text-anchor="middle" x="374.5" y="-285.5" font-family="Helvetica,sans-Serif" font-size="10.00">Ogre::ParticleEmitterTranslator</text>
</a>
</g>
</g>
<!-- Node1&#45;&gt;Node14 -->
<g id="edge13" class="edge"><title>Node1&#45;&gt;Node14</title>
<path fill="none" stroke="midnightblue" d="M266.455,-299.756C276.885,-298.611 287.738,-297.419 298.359,-296.253"/>
<polygon fill="midnightblue" stroke="midnightblue" points="265.749,-296.313 256.191,-300.884 266.513,-303.271 265.749,-296.313"/>
</g>
<!-- Node15 -->
<g id="node15" class="node"><title>Node15</title>
<g id="a_node15"><a xlink:href="class_ogre_1_1_particle_system_translator.html" target="_top" xlink:title="Ogre::ParticleSystemTranslator">
<polygon fill="none" stroke="black" points="297.5,-240.5 297.5,-259.5 451.5,-259.5 451.5,-240.5 297.5,-240.5"/>
<text text-anchor="middle" x="374.5" y="-247.5" font-family="Helvetica,sans-Serif" font-size="10.00">Ogre::ParticleSystemTranslator</text>
</a>
</g>
</g>
<!-- Node1&#45;&gt;Node15 -->
<g id="edge14" class="edge"><title>Node1&#45;&gt;Node15</title>
<path fill="none" stroke="midnightblue" d="M230.08,-293.258C247.775,-285.407 270.862,-275.802 292,-269 303.064,-265.44 315.172,-262.249 326.591,-259.545"/>
<polygon fill="midnightblue" stroke="midnightblue" points="228.534,-290.116 220.851,-297.411 231.406,-296.499 228.534,-290.116"/>
</g>
<!-- Node16 -->
<g id="node16" class="node"><title>Node16</title>
<g id="a_node16"><a xlink:href="class_ogre_1_1_pass_translator.html" target="_top" xlink:title="Ogre::PassTranslator">
<polygon fill="none" stroke="black" points="319.5,-202.5 319.5,-221.5 429.5,-221.5 429.5,-202.5 319.5,-202.5"/>
<text text-anchor="middle" x="374.5" y="-209.5" font-family="Helvetica,sans-Serif" font-size="10.00">Ogre::PassTranslator</text>
</a>
</g>
</g>
<!-- Node1&#45;&gt;Node16 -->
<g id="edge15" class="edge"><title>Node1&#45;&gt;Node16</title>
<path fill="none" stroke="midnightblue" d="M216.008,-290.137C232.992,-272.702 261.849,-245.979 292,-231 300.457,-226.798 309.874,-223.505 319.218,-220.931"/>
<polygon fill="midnightblue" stroke="midnightblue" points="213.437,-287.761 209.079,-297.418 218.508,-292.587 213.437,-287.761"/>
</g>
<!-- Node17 -->
<g id="node17" class="node"><title>Node17</title>
<g id="a_node17"><a xlink:href="class_ogre_1_1_r_t_shader_1_1_s_g_script_translator.html" target="_top" xlink:title="This class responsible for translating core features of the RT Shader System for Ogre material script...">
<polygon fill="none" stroke="black" points="307.5,-153 307.5,-183 441.5,-183 441.5,-153 307.5,-153"/>
<text text-anchor="start" x="315.5" y="-171" font-family="Helvetica,sans-Serif" font-size="10.00">Ogre::RTShader::SGScript</text>
<text text-anchor="middle" x="374.5" y="-160" font-family="Helvetica,sans-Serif" font-size="10.00">Translator</text>
</a>
</g>
</g>
<!-- Node1&#45;&gt;Node17 -->
<g id="edge16" class="edge"><title>Node1&#45;&gt;Node17</title>
<path fill="none" stroke="midnightblue" d="M210.532,-288.526C225.168,-263.286 254.733,-218.28 292,-193 297.634,-189.178 303.875,-185.923 310.322,-183.153"/>
<polygon fill="midnightblue" stroke="midnightblue" points="207.369,-287.01 205.51,-297.44 213.468,-290.446 207.369,-287.01"/>
</g>
<!-- Node18 -->
<g id="node18" class="node"><title>Node18</title>
<g id="a_node18"><a xlink:href="class_ogre_1_1_shared_params_translator.html" target="_top" xlink:title="Ogre::SharedParamsTranslator">
<polygon fill="none" stroke="black" points="298.5,-114.5 298.5,-133.5 450.5,-133.5 450.5,-114.5 298.5,-114.5"/>
<text text-anchor="middle" x="374.5" y="-121.5" font-family="Helvetica,sans-Serif" font-size="10.00">Ogre::SharedParamsTranslator</text>
</a>
</g>
</g>
<!-- Node1&#45;&gt;Node18 -->
<g id="edge17" class="edge"><title>Node1&#45;&gt;Node18</title>
<path fill="none" stroke="midnightblue" d="M205.678,-287.566C215.973,-252.854 242.412,-180.343 292,-143 297.107,-139.154 302.865,-136.069 308.901,-133.597"/>
<polygon fill="midnightblue" stroke="midnightblue" points="202.246,-286.84 202.894,-297.415 208.982,-288.744 202.246,-286.84"/>
</g>
<!-- Node19 -->
<g id="node19" class="node"><title>Node19</title>
<g id="a_node19"><a xlink:href="class_ogre_1_1_technique_translator.html" target="_top" xlink:title="Ogre::TechniqueTranslator">
<polygon fill="none" stroke="black" points="308.5,-76.5 308.5,-95.5 440.5,-95.5 440.5,-76.5 308.5,-76.5"/>
<text text-anchor="middle" x="374.5" y="-83.5" font-family="Helvetica,sans-Serif" font-size="10.00">Ogre::TechniqueTranslator</text>
</a>
</g>
</g>
<!-- Node1&#45;&gt;Node19 -->
<g id="edge18" class="edge"><title>Node1&#45;&gt;Node19</title>
<path fill="none" stroke="midnightblue" d="M203.551,-287.129C210.902,-246.346 233.515,-153 292,-105 296.829,-101.037 302.335,-97.8685 308.155,-95.3405"/>
<polygon fill="midnightblue" stroke="midnightblue" points="200.072,-286.715 201.866,-297.157 206.975,-287.875 200.072,-286.715"/>
</g>
<!-- Node20 -->
<g id="node20" class="node"><title>Node20</title>
<g id="a_node20"><a xlink:href="class_ogre_1_1_texture_source_translator.html" target="_top" xlink:title="Ogre::TextureSourceTranslator">
<polygon fill="none" stroke="black" points="299,-38.5 299,-57.5 450,-57.5 450,-38.5 299,-38.5"/>
<text text-anchor="middle" x="374.5" y="-45.5" font-family="Helvetica,sans-Serif" font-size="10.00">Ogre::TextureSourceTranslator</text>
</a>
</g>
</g>
<!-- Node1&#45;&gt;Node20 -->
<g id="edge19" class="edge"><title>Node1&#45;&gt;Node20</title>
<path fill="none" stroke="midnightblue" d="M201.947,-287.303C206.425,-241.298 224.186,-126.213 292,-67 296.378,-63.1776 301.377,-60.0859 306.697,-57.5898"/>
<polygon fill="midnightblue" stroke="midnightblue" points="198.445,-287.17 201.072,-297.434 205.419,-287.772 198.445,-287.17"/>
</g>
<!-- Node21 -->
<g id="node21" class="node"><title>Node21</title>
<g id="a_node21"><a xlink:href="class_ogre_1_1_texture_unit_translator.html" target="_top" xlink:title="Ogre::TextureUnitTranslator">
<polygon fill="none" stroke="black" points="305.5,-0.5 305.5,-19.5 443.5,-19.5 443.5,-0.5 305.5,-0.5"/>
<text text-anchor="middle" x="374.5" y="-7.5" font-family="Helvetica,sans-Serif" font-size="10.00">Ogre::TextureUnitTranslator</text>
</a>
</g>
</g>
<!-- Node1&#45;&gt;Node21 -->
<g id="edge20" class="edge"><title>Node1&#45;&gt;Node21</title>
<path fill="none" stroke="midnightblue" d="M200.783,-287.037C202.644,-235.935 214.96,-99.4763 292,-29 296.181,-25.1754 300.979,-22.0752 306.11,-19.5674"/>
<polygon fill="midnightblue" stroke="midnightblue" points="197.276,-287.265 200.513,-297.353 204.274,-287.448 197.276,-287.265"/>
</g>
<!-- Node2 -->
<g id="node2" class="node"><title>Node2</title>
<g id="a_node2"><a xlink:href="class_ogre_1_1_allocated_object.html" target="_top" xlink:title="Superclass for all objects that wish to use custom memory allocators when their new / delete operator...">
<polygon fill="none" stroke="black" points="0,-297.5 0,-316.5 107,-316.5 107,-297.5 0,-297.5"/>
<text text-anchor="middle" x="53.5" y="-304.5" font-family="Helvetica,sans-Serif" font-size="10.00">ScriptTranslatorAlloc</text>
</a>
</g>
</g>
<!-- Node2&#45;&gt;Node1 -->
<g id="edge1" class="edge"><title>Node2&#45;&gt;Node1</title>
<path fill="none" stroke="midnightblue" d="M117.473,-307C125.905,-307 134.505,-307 142.8,-307"/>
<polygon fill="midnightblue" stroke="midnightblue" points="117.303,-303.5 107.303,-307 117.303,-310.5 117.303,-303.5"/>
</g>
<!-- Node7 -->
<g id="node7" class="node"><title>Node7</title>
<g id="a_node7"><a xlink:href="class_ogre_1_1_compositor_node_translator.html" target="_top" xlink:title="Ogre::CompositorNodeTranslator">
<polygon fill="none" stroke="black" points="493,-518.5 493,-537.5 654,-537.5 654,-518.5 493,-518.5"/>
<text text-anchor="middle" x="573.5" y="-525.5" font-family="Helvetica,sans-Serif" font-size="10.00">Ogre::CompositorNodeTranslator</text>
</a>
</g>
</g>
<!-- Node6&#45;&gt;Node7 -->
<g id="edge6" class="edge"><title>Node6&#45;&gt;Node7</title>
<path fill="none" stroke="midnightblue" d="M452.693,-501.241C478.965,-507.109 507.36,-513.451 529.91,-518.488"/>
<polygon fill="midnightblue" stroke="midnightblue" points="453.268,-497.783 442.745,-499.019 451.742,-504.615 453.268,-497.783"/>
</g>
<!-- Node8 -->
<g id="node8" class="node"><title>Node8</title>
<g id="a_node8"><a xlink:href="class_ogre_1_1_compositor_shadow_node_translator.html" target="_top" xlink:title="Ogre::CompositorShadowNode\lTranslator">
<polygon fill="none" stroke="black" points="497.5,-469 497.5,-499 649.5,-499 649.5,-469 497.5,-469"/>
<text text-anchor="start" x="505.5" y="-487" font-family="Helvetica,sans-Serif" font-size="10.00">Ogre::CompositorShadowNode</text>
<text text-anchor="middle" x="573.5" y="-476" font-family="Helvetica,sans-Serif" font-size="10.00">Translator</text>
</a>
</g>
</g>
<!-- Node6&#45;&gt;Node8 -->
<g id="edge7" class="edge"><title>Node6&#45;&gt;Node8</title>
<path fill="none" stroke="midnightblue" d="M459.199,-484C471.857,-484 484.848,-484 497.311,-484"/>
<polygon fill="midnightblue" stroke="midnightblue" points="459.136,-480.5 449.136,-484 459.136,-487.5 459.136,-480.5"/>
</g>
<!-- Node9 -->
<g id="node9" class="node"><title>Node9</title>
<g id="a_node9"><a xlink:href="class_ogre_1_1_compositor_workspace_translator.html" target="_top" xlink:title="Ogre::CompositorWorkspace\lTranslator">
<polygon fill="none" stroke="black" points="502,-420 502,-450 645,-450 645,-420 502,-420"/>
<text text-anchor="start" x="510" y="-438" font-family="Helvetica,sans-Serif" font-size="10.00">Ogre::CompositorWorkspace</text>
<text text-anchor="middle" x="573.5" y="-427" font-family="Helvetica,sans-Serif" font-size="10.00">Translator</text>
</a>
</g>
</g>
<!-- Node6&#45;&gt;Node9 -->
<g id="edge8" class="edge"><title>Node6&#45;&gt;Node9</title>
<path fill="none" stroke="midnightblue" d="M445.764,-466.523C467.477,-461.123 491.189,-455.224 512.169,-450.006"/>
<polygon fill="midnightblue" stroke="midnightblue" points="444.805,-463.155 435.945,-468.965 446.494,-469.948 444.805,-463.155"/>
</g>
</g>
</svg>
