<?xml version="1.0" encoding="UTF-8" standalone="no"?>
<!DOCTYPE svg PUBLIC "-//W3C//DTD SVG 1.1//EN"
 "http://www.w3.org/Graphics/SVG/1.1/DTD/svg11.dtd">
<!-- Generated by graphviz version 2.38.0 (20140413.2041)
 -->
<!-- Title: Ogre::GL3PlusContext Pages: 1 -->
<svg width="355pt" height="84pt"
 viewBox="0.00 0.00 354.50 84.00" xmlns="http://www.w3.org/2000/svg" xmlns:xlink="http://www.w3.org/1999/xlink">
<g id="graph0" class="graph" transform="scale(1 1) rotate(0) translate(4 80)">
<title>Ogre::GL3PlusContext</title>
<!-- Node1 -->
<g id="node1" class="node"><title>Node1</title>
<polygon fill="#bfbfbf" stroke="black" points="115.5,-56.5 115.5,-75.5 231.5,-75.5 231.5,-56.5 115.5,-56.5"/>
<text text-anchor="middle" x="173.5" y="-63.5" font-family="Helvetica,sans-Serif" font-size="10.00">Ogre::GL3PlusContext</text>
</g>
<!-- Node2 -->
<g id="node2" class="node"><title>Node2</title>
<g id="a_node2"><a xlink:href="class_ogre_1_1_cocoa_context.html" target="_top" xlink:title="Ogre::CocoaContext">
<polygon fill="none" stroke="black" points="0,-0.5 0,-19.5 107,-19.5 107,-0.5 0,-0.5"/>
<text text-anchor="middle" x="53.5" y="-7.5" font-family="Helvetica,sans-Serif" font-size="10.00">Ogre::CocoaContext</text>
</a>
</g>
</g>
<!-- Node1&#45;&gt;Node2 -->
<g id="edge1" class="edge"><title>Node1&#45;&gt;Node2</title>
<path fill="none" stroke="midnightblue" d="M145.127,-52.2321C122.68,-42.1312 91.9648,-28.3091 72.4254,-19.5164"/>
<polygon fill="midnightblue" stroke="midnightblue" points="143.93,-55.5316 154.486,-56.4435 146.803,-49.1481 143.93,-55.5316"/>
</g>
<!-- Node3 -->
<g id="node3" class="node"><title>Node3</title>
<g id="a_node3"><a xlink:href="class_ogre_1_1_g_l_x_context.html" target="_top" xlink:title="Ogre::GLXContext">
<polygon fill="none" stroke="black" points="124.5,-0.5 124.5,-19.5 222.5,-19.5 222.5,-0.5 124.5,-0.5"/>
<text text-anchor="middle" x="173.5" y="-7.5" font-family="Helvetica,sans-Serif" font-size="10.00">Ogre::GLXContext</text>
</a>
</g>
</g>
<!-- Node1&#45;&gt;Node3 -->
<g id="edge2" class="edge"><title>Node1&#45;&gt;Node3</title>
<path fill="none" stroke="midnightblue" d="M173.5,-45.8045C173.5,-36.9102 173.5,-26.7798 173.5,-19.7511"/>
<polygon fill="midnightblue" stroke="midnightblue" points="170,-46.083 173.5,-56.083 177,-46.083 170,-46.083"/>
</g>
<!-- Node4 -->
<g id="node4" class="node"><title>Node4</title>
<g id="a_node4"><a xlink:href="class_ogre_1_1_win32_context.html" target="_top" xlink:title="Ogre::Win32Context">
<polygon fill="none" stroke="black" points="240.5,-0.5 240.5,-19.5 346.5,-19.5 346.5,-0.5 240.5,-0.5"/>
<text text-anchor="middle" x="293.5" y="-7.5" font-family="Helvetica,sans-Serif" font-size="10.00">Ogre::Win32Context</text>
</a>
</g>
</g>
<!-- Node1&#45;&gt;Node4 -->
<g id="edge3" class="edge"><title>Node1&#45;&gt;Node4</title>
<path fill="none" stroke="midnightblue" d="M201.873,-52.2321C224.32,-42.1312 255.035,-28.3091 274.575,-19.5164"/>
<polygon fill="midnightblue" stroke="midnightblue" points="200.197,-49.1481 192.514,-56.4435 203.07,-55.5316 200.197,-49.1481"/>
</g>
</g>
</svg>
